<?xml version="1.0" encoding="utf-8"?>
<svg xmlns="http://www.w3.org/2000/svg" width="235" height="34" fill="none">
  <g clip-path="url(#clip0_6404_503)" fill="#fff">
    <path d="M132.045 6.526c0-3.114 0-4.124 3.914-4.124 5.493 0 9.267 2.152 11.27 4.672 1.63 2.016 2.887 5.403 2.887 9.892 0 3.434-.79 7.695-2.748 10.44-1.769 2.52-5.215 4.395-10.433 4.395-4.937 0-4.937-1.192-4.89-4.12V6.525zm-4.396 18.958c0 5.955 0 6.273-4.047 6.273.048.234 0 .512 0 .743 0 .28.048.511 0 .839 1.302-.187 3.071-.219 4.741-.219 2.729 0 6.217.219 10.083.219 2.839 0 8.105-.047 12.11-4.055 3.534-3.528 4.277-8.472 4.277-12.365 0-1.784 0-6.457-3.396-10.624-3.91-4.85-9.454-5.443-13.55-5.443-3.026 0-5.913.311-8.832.311-1.81 0-3.389-.127-5.436-.311.048.227 0 .455 0 .82 0 .23.048.686 0 .823 3.487 0 4.046.319 4.046 4.03v18.96h.004zm33.415-5.234c.186-1.472.508-3.356 1.572-4.919.834-1.241 2.085-2.299 4.119-2.299s4.397 1.151 4.397 4.414c0 2.714-1.665 2.76-5.414 2.804h-4.674zm14.052 1.382c.092-.736.186-1.472.186-1.98 0-5.335-3.866-8.173-8.405-8.173-4.538 0-10.436 2.976-10.436 11.987 0 6.332 4.091 10.58 9.881 10.58 5.789 0 7.748-3.33 9.055-5.576-.603-.231-.976-.69-1.443-1.102-1.681 3.076-3.768 4.817-6.779 4.817-4.583 0-5.695-3.81-6.017-6.058-.23-1.332-.23-2.66-.139-4.498h14.1l-.003.003zm4.271-3.21c0-3.571 0-4.622-2.325-4.622-.417 0-.79 0-1.207.046.044-.277.063-.511.063-.792 0-.28-.015-.558-.063-.836.746 0 1.257.047 1.908.047 2.979 0 4.049-.459 4.842-.86h.417l.092 5.027c2.931-4.282 5.581-4.788 6.835-4.788 1.999 0 3.395 1.426 3.395 3.082 0 1.382-.931 2.486-2.372 2.486-1.162 0-1.86-.642-1.999-1.694-.092-.78-.139-1.328-.976-1.328-.651 0-2.186.552-3.44 2.657-1.023 1.744-1.023 2.842-1.023 5.743v5.904c-.048 3.294.373 3.385 3.067 3.385 0 .274-.076.505-.076.78 0 .23.076.458.076.69-1.857-.091-3.721-.15-5.07-.15-1.772 0-3.493.059-5.259.15.048-.232.013-.506.013-.737 0-.23.035-.459-.013-.686 1.21 0 1.813 0 2.325-.275.745-.412.745-.964.79-3.113V18.422zm17.978-.655c0-2.02 0-3.262-1.118-3.811-.556-.278-1.206-.278-2.419-.231.047-.231.063-.505.063-.78 0-.23-.016-.459-.063-.69h1.999c.929 0 3.73-.367 4.621-.9h.61l.139 4.71c1.958-2.758 4.144-4.664 7.22-4.664 1.302 0 2.796.362 3.778.951 1.826 1.045 2.198 2.742 2.385 3.497 1.07-1.379 3.537-4.52 7.122-4.52 2.142 0 4.106 1.248 4.669 1.944 1.541 1.796 1.633 3.035 1.497 7.86l-.047 4.146v3.687c0 2.395.091 3.04 3.067 3.04a3.342 3.342 0 0 0-.073.69c0 .231.025.415.073.646a100.48 100.48 0 0 0-10.629 0c0-.23.136-.462.136-.693 0-.23-.136-.458-.136-.689 3.49 0 3.49-.552 3.49-4.56v-8.294c0-3.27-.973-5.3-3.816-5.3-1.304 0-2.236.552-3.259 1.429-1.583 1.381-2.047 3.5-2.047 7.05v6.175c0 3.085.281 3.5 3.165 3.5-.047.23-.114.505-.114.736 0 .184.067.415.114.646a99.75 99.75 0 0 0-10.543 0c.047-.23.079-.462.079-.693 0-.23-.032-.458-.079-.736 2.981 0 3.31-.415 3.31-3.456V18.273c0-2.49-.793-4.47-3.541-4.47-.559 0-2.884.047-4.517 2.857-1.023 1.66-1.023 2.764-1.071 5.608v5.603c-.047 3.768.095 4.042 3.216 4.042-.048.278-.048.506-.048.736 0 .231 0 .462.048.693-1.769-.094-3.541-.14-5.319-.14a95.49 95.49 0 0 0-5.218.14c.047-.23.132-.462.132-.693 0-.23-.088-.458-.132-.689 1.348 0 2.138 0 2.65-.412.559-.458.559-.873.606-3.446V17.767z"/>
    <path fill-rule="evenodd" clip-rule="evenodd" d="M89.635 22.752a43.579 43.579 0 0 0-11.362-5.284 42.438 42.438 0 0 0-1.74-.493c-7.837-2.03-16.28-2.034-24.596-.168C34.669 20.693 16.425 29.505 0 22.016v.992c8.358 4.348 18.055 4.822 27.663 2.807 8.974-1.896 16.655-4.782 25.629-6.719 7.691-1.669 15.3-1.666 22.48-.081.593.131 1.19.265 1.781.421a48.844 48.844 0 0 1 12.89 5.424l-.808-2.102v-.006z"/>
    <path fill-rule="evenodd" clip-rule="evenodd" d="M122.105 3.456C120.011 1.31 116.991.855 113.65.855c-.929 0-2.044.043-3.159.09-2.647.019-3.942.063-5.376.063-2.647.118-3.992-.02-5.25-.156.048.156 0 .427 0 .655 0 .274.048.546 0 .817 3.952 0 4.047.23 4.047 3.63v22.902c0 2.755-1.254 2.895-4.046 2.895v.028c-1.687-.078-2.091-.546-3.15-3.297l-9.39-24.174c-.742-1.884-1.112-2.804-1.485-4.23a9.532 9.532 0 0 1-1.623.153c-.556 0-1.02-.063-1.532-.153-.464 1.7-.79 2.436-1.346 4.043l-4.807 12.854c.584.15 1.162.318 1.737.493l4.643-12.702c.604 2.022.929 2.942 1.81 5.238l4.909 12.748.808 2.102 1.608 4.18c.464 1.151.603 2.533-1.532 2.717-1.02.047-1.203.047-1.39.047.048.268.026.53.026.798 0 .269.022.487-.026.755 1.946-.134 3.901-.234 5.809-.234 1.642 0 3.285.075 4.927.175-.003.019 0 .044-.003.06.168-.01.332-.023.499-.035.199.016.395.022.594.034-.003-.025 0-.047-.006-.072 1.728-.118 3.449-.237 5.133-.237 1.02 0 4.08.172 6.171.31-.047-.275-.12-.503-.12-.777 0-.228.073-.503.12-.777-3.25 0-3.995-.047-3.948-3.17V17.787c2.044.184 3.206.278 4.83.278 3.345 0 5.944-.418 8.083-2.18 3.022-2.48 3.022-5.837 3.022-6.8 0-.78 0-3.479-2.138-5.628m-5.155 11.875c-1.623 1.104-3.623 1.195-4.738 1.195-1.206 0-2.741-.184-3.901-.321V5.91c0-2.436 0-3.584 4.738-3.584 3.203 0 6.734 1.837 6.734 6.894 0 2.389-.837 4.735-2.833 6.11zM75.358 25.444l2.195-6.011a50.89 50.89 0 0 0-1.781-.418l-3.715 9.929c-1.118 2.67-1.162 2.81-3.999 2.81a4.487 4.487 0 0 1 0 1.6c1.627-.134 3.21-.234 4.836-.234 1.627 0 3.156.1 4.735.234a2.622 2.622 0 0 1-.14-.845c0-.218.048-.487.14-.708-3.247 0-4.27-.415-2.271-6.354"/>
    <path d="M235.006 13.943c0 1.532-1.247 2.745-2.83 2.745-1.582 0-2.846-1.213-2.846-2.745 0-1.531 1.264-2.73 2.865-2.73 1.602 0 2.815 1.199 2.815 2.73m-4.975 0c0 1.213.925 2.18 2.157 2.18 1.197.016 2.107-.963 2.107-2.161s-.91-2.196-2.139-2.196c-1.228 0-2.122.982-2.122 2.18m1.699 1.413h-.641v-2.73c.253-.033.606-.083 1.061-.083.521 0 .758.084.942.215a.684.684 0 0 1 .287.58c0 .334-.253.55-.572.649v.031c.269.084.405.3.49.668.085.415.151.564.202.667h-.673c-.085-.1-.136-.334-.218-.667-.05-.284-.218-.415-.571-.415h-.304v1.082l-.003.003zm.016-1.531h.303c.354 0 .641-.119.641-.4 0-.25-.186-.414-.59-.414a1.44 1.44 0 0 0-.354.034v.783-.003z"/>
  </g>
  <defs>
    <clipPath id="clip0_6404_503">
      <path fill="#fff" d="M0 0h235v34H0z"/>
    </clipPath>
  </defs>
</svg>