<?xml version="1.0" encoding="UTF-8"?>
<svg id="Layer_1" xmlns="http://www.w3.org/2000/svg" viewBox="0 0 510.13 96.01">
  <defs>
    <style>
      .cls-1 {
        fill: #ed8b00;
      }

      .cls-2 {
        fill: #2261ae;
      }
    </style>
  </defs>
  <path class="cls-2" d="M29.44,17.01C13.18,17.01,0,30.19,0,46.45s13.18,29.44,29.44,29.44,29.44-13.18,29.44-29.44-13.18-29.44-29.44-29.44ZM11.44,62.62l3.19-18.01c1.13-6.85,4.74-12.47,10.91-14.33l-3.2,18.06c-1.33,7.02-4.82,12.39-10.9,14.28ZM21.64,67.05l4.81-26.95c1.13-6.85,4.74-12.47,10.91-14.33l-4.82,26.99c-1.33,7.02-4.82,12.39-10.9,14.28ZM44.36,48.34c-1.33,7.02-4.82,12.39-10.9,14.28l3.19-18.01c1.13-6.85,4.74-12.47,10.91-14.33l-3.2,18.06Z" />
  <rect class="cls-1" x="78.01" width="2.63" height="96.01" />
  <path class="cls-1" d="M317.51,89.08c-2.01,0-3.46-1.68-3.46-3.74v-.03c0-2.05,1.45-3.71,3.46-3.71,1.2,0,2.1.53,2.94,1.3l1.18-1.36c-1-.96-2.17-1.64-4.11-1.64-3.18,0-5.42,2.45-5.42,5.43v.03c0,3.01,2.28,5.4,5.34,5.4,1.96,0,3.17-.72,4.26-1.86l-1.18-1.2c-.9.84-1.73,1.37-3.01,1.37ZM340.1,83.44v-.03c0-.92-.32-1.7-.87-2.26-.67-.66-1.71-1.05-3.03-1.05h-4.68v10.5h1.85v-3.66h2.31l2.58,3.66h2.17l-2.83-3.97c1.47-.42,2.5-1.46,2.5-3.18ZM333.36,85.3v-3.52h2.68c1.37,0,2.17.62,2.17,1.74v.03c0,1.07-.84,1.75-2.16,1.75h-2.7ZM352.08,86.13h5.26v-1.65h-5.26v-2.73h5.94v-1.65h-7.79v10.5h7.86v-1.65h-6.01v-2.82ZM372.08,80.1h-3.92v10.5h3.92c3.3,0,5.58-2.29,5.58-5.25v-.03c0-2.96-2.28-5.22-5.58-5.22ZM375.72,85.38c0,2.05-1.44,3.54-3.64,3.54h-2.07v-7.14h2.07c2.21,0,3.64,1.51,3.64,3.57v.03ZM387.87,90.6h1.84v-10.5h-1.84v10.5ZM399.65,81.81h3.33v8.79h1.86v-8.79h3.33v-1.71h-8.52v1.71ZM433.44,86.14c0,1.93-1,2.92-2.64,2.92s-2.65-1.05-2.65-3v-5.97h-1.85v6.04c0,3.04,1.74,4.62,4.47,4.62s4.52-1.58,4.52-4.71v-5.95h-1.85v6.04ZM453.03,87.36l-5.62-7.26h-1.71v10.5h1.82v-7.47l5.79,7.47h1.54v-10.5h-1.82v7.26ZM465.53,90.6h1.84v-10.5h-1.84v10.5ZM483.09,79.92c-3.22,0-5.5,2.48-5.5,5.43v.03c0,2.96,2.25,5.4,5.47,5.4s5.5-2.48,5.5-5.43v-.03c0-2.96-2.25-5.4-5.47-5.4ZM486.63,85.38c0,2.04-1.46,3.71-3.54,3.71s-3.57-1.7-3.57-3.74v-.03c0-2.04,1.45-3.71,3.54-3.71s3.57,1.7,3.57,3.73v.03ZM506.01,80.1v7.26l-5.62-7.26h-1.71v10.5h1.82v-7.47l5.79,7.47h1.54v-10.5h-1.82Z" />
  <path class="cls-2" d="M453.57,40.71c0-7.03-5.59-11.92-14.11-11.92h-29.78v16.26h-8.65c1.29,4.06,4.48,6.48,8.65,7.48v11.68h10.14v-11.14h13s9.66,11.14,9.66,11.14h12.12l-10.11-11.83c5.85-1.57,9.09-5.78,9.09-11.67ZM443.55,41.31c0,2.26-1.78,3.68-4.88,3.73,0,0-18.85,0-18.85,0v-8.26h18.72s.08,0,.13.01c3.1.06,4.88,1.48,4.88,3.73v.78ZM143.01,52.98h-.17l-6.62-24.19h-11.81l-6.57,24.19h-.23l-7.78-24.19h-11.06l12.79,35.43h11.75l6.91-24.08h.12l6.97,24.08h11.81l12.73-35.43h-11.06l-7.78,24.19ZM212.25,33.51c-4.61-3.63-11.12-5.76-18.38-5.76s-13.83,2.13-18.43,5.76c-4.26,3.34-6.45,7.78-6.45,12.96s2.19,9.74,6.39,13.02c4.55,3.57,11.12,5.76,18.49,5.76s13.88-2.19,18.43-5.76c4.21-3.28,6.39-7.78,6.39-13.02s-2.19-9.62-6.45-12.96ZM193.87,57.3c-8.99,0-14.52-4.38-14.52-10.83s5.65-10.77,14.52-10.77,14.4,4.49,14.4,10.77-5.53,10.83-14.4,10.83ZM490.95,42.58c-9.27-.81-14.17-.46-14.17-3.4,0-2.02,3.63-3.4,10.54-3.4,5.53,0,10.94,1.21,16.53,3.69l4.78-6.34c-5.82-3.92-12.96-5.47-22.18-5.47-12.79,0-20.1,4.72-20.1,11.81,0,6.22,5.64,9.91,16.88,10.77,10.43.81,16.13,1.09,16.13,3.46,0,2.02-3.57,3.34-10.48,3.34-7.66,0-13.94-1.56-19.53-5.24l-5.24,6.34c7.66,5.01,15.55,7.2,24.83,7.2,13.77,0,21.2-4.84,21.2-12.38,0-6.39-6.16-9.27-19.18-10.37ZM340.27,28.93h-13.65l-21.78,17.45v-17.45h-10.14v35.43h10.14v-17.97l22.41,17.97h13.65l-22.19-17.97,21.55-17.45ZM280.42,40.71c0-7.03-5.59-11.92-14.11-11.92h-29.78v16.26h-8.65c1.29,4.06,4.48,6.48,8.65,7.48v11.68h10.14v-11.14h13s9.66,11.14,9.66,11.14h12.12l-10.11-11.83c5.85-1.57,9.09-5.78,9.09-11.67ZM270.4,41.31c0,2.26-1.78,3.68-4.88,3.73,0,0-18.85,0-18.85,0v-8.26h18.72s.08,0,.13.01c3.1.06,4.88,1.48,4.88,3.73v.78ZM362.17,50.56h28.34v-8.01h-28.34v-5.76h28.34v-8.01h-38.48v13.75h-8.55c1.28,4.03,4.44,6.45,8.55,7.46v14.21h39.86v-8.01h-29.72v-5.65Z" />
</svg>